# xmcd
#
# Track frame offsets:
# 216
# 19565
# 40374
# 57555
# 72842
# 88683
# 103952
# 122375
# 139197
# 159079
# 175065
#
# Disc length: 2554 seconds
#
#
# Revision: 0
# Processed by: cddbd v1.5.2PL0 Copyright (c) Steve Scherf et al.
# Submitted via: FreeRIP 2.945 
#
DISCID=8d09f80b
DTITLE=Amaia Montero - Amaia Montero
DYEAR=2008
DGENRE=Pop
TTITLE0=Quiero Ser
TTITLE1=Mirando al mar
TTITLE2=4''
TTITLE3=407
TTITLE4=Tulipán
TTITLE5=Ni puedo ni quiero
TTITLE6=Te falta rock
TTITLE7=Circulos
TTITLE8=La Bahía del silencio
TTITLE9=Te voy a decir una cosa
TTITLE10=Por toda una vida
EXTD=
EXTT0=
EXTT1=
EXTT2=
EXTT3=
EXTT4=
EXTT5=
EXTT6=
EXTT7=
EXTT8=
EXTT9=
EXTT10=
PLAYORDER=
